<?xml version="1.0" encoding="utf-8"?>
<!-- Generator: Adobe Illustrator 16.0.3, SVG Export Plug-In . SVG Version: 6.00 Build 0)  -->
<!DOCTYPE svg PUBLIC "-//W3C//DTD SVG 1.1//EN" "http://www.w3.org/Graphics/SVG/1.1/DTD/svg11.dtd">
<svg version="1.1" id="Layer_1" xmlns="http://www.w3.org/2000/svg" xmlns:xlink="http://www.w3.org/1999/xlink" x="0px" y="0px"
	 width="979px" height="543px" viewBox="88 -21.5 979 543" enable-background="new 88 -21.5 979 543" xml:space="preserve">
<linearGradient id="SVGID_1_" gradientUnits="userSpaceOnUse" x1="1719.2549" y1="-116.9404" x2="1832.4551" y2="-116.9404" gradientTransform="matrix(1 0 0 -1 4.492188e-002 499.7598)">
	<stop  offset="0" style="stop-color:#FFFFFF"/>
	<stop  offset="0.6882" style="stop-color:#184570"/>
	<stop  offset="1" style="stop-color:#000000"/>
</linearGradient>
<ellipse fill="url(#SVGID_1_)" stroke="#211F20" stroke-miterlimit="10" cx="1775.9" cy="616.7" rx="56.6" ry="38.2"/>
<g>
	<path fill="#0F395E" d="M1886.9,718.8c0,1.6-1.3,2.8-2.8,2.8H1842c-1.6,0-2.8-1.3-2.8-2.8v-4.6c0-1.6,1.3-2.8,2.8-2.8h42.1
		c1.6,0,2.8,1.3,2.8,2.8V718.8z"/>
	<path fill="#0F395E" d="M1886.9,730.8c0,1.6-1.3,2.8-2.8,2.8H1842c-1.6,0-2.8-1.3-2.8-2.8v-4.6c0-1.6,1.3-2.8,2.8-2.8h42.1
		c1.6,0,2.8,1.3,2.8,2.8V730.8z"/>
	<path fill="#0F395E" d="M1886.9,742.8c0,1.6-1.3,2.8-2.8,2.8H1842c-1.6,0-2.8-1.3-2.8-2.8v-4.6c0-1.6,1.3-2.8,2.8-2.8h42.1
		c1.6,0,2.8,1.3,2.8,2.8V742.8z"/>
	<path fill="#0F395E" d="M1886.9,754.8c0,1.6-1.3,2.8-2.8,2.8H1842c-1.6,0-2.8-1.3-2.8-2.8v-4.6c0-1.6,1.3-2.8,2.8-2.8h42.1
		c1.6,0,2.8,1.3,2.8,2.8V754.8z"/>
</g>
<g>
	<path fill="none" d="M223.4,95.5l-8,14.4c12,2.5,22.9,9.7,29.7,21c6.8,11.1,8.1,24,4.8,35.7l16.4-0.3c2.9-14.5,0.6-30-7.6-43.6
		C250.4,109,237.6,99.7,223.4,95.5z"/>
	<path fill="none" d="M232.8,78.5l-6.4,11.3c15.1,4.8,28.7,14.9,37.6,29.6c8.8,14.6,11.5,31.3,8.7,46.8l12.9-0.2
		c2.6-17.9-0.7-36.6-10.7-53.2C265,96.1,249.8,84.4,232.8,78.5z"/>
	<path fill="none" d="M241.4,133c-6.5-10.6-16.9-17.3-28.2-19.3l-4.5,8.1c10.1,0.8,19.7,6.3,25.4,15.6c5.5,9.2,6,20,2.2,29.1
		l9.2-0.2C248.8,155.7,247.6,143.5,241.4,133z"/>
	<path fill="none" d="M236.9,71.1c18.2,6.7,34.4,19.5,45.2,37.4s14.5,38.1,12,57.4l37-0.5L255.2,38.2L236.9,71.1z"/>
	<path fill="none" d="M184.7,164.8l-1.5,2.7l3-0.1c-0.2-0.2-0.3-0.5-0.5-0.7C185.3,166.1,184.9,165.4,184.7,164.8z"/>
	<path fill="none" d="M231.4,139.1c-5.4-8.9-14.7-13.9-24.4-14.2l-3.3,5.9c8.8-0.9,17.9,3.2,22.7,11.4c4.8,7.9,4.4,17.5-0.1,24.8
		l6.5-0.1C236.8,158.2,236.6,147.8,231.4,139.1z"/>
	<path fill="none" d="M224.5,143.2c-4.7-7.9-13.7-11.6-22.3-10.1L186,162.3c0.4,1.1,1,2.1,1.6,3.2c0.4,0.6,0.8,1.3,1.3,1.8l34.8-0.5
		C228.4,160.1,229.1,150.8,224.5,143.2z"/>
	<path fill="#12395B" d="M245,130.9c-6.8-11.3-17.8-18.5-29.7-21l-2.2,4c11.4,2,21.8,8.7,28.2,19.3c6.4,10.5,7.4,22.6,4.1,33.5
		l4.5,0C253.1,154.9,251.8,142,245,130.9z"/>
	<path fill="#12395B" d="M226.5,89.8l-3.2,5.7c14.2,4.2,27,13.5,35.3,27.2c8.2,13.6,10.5,29.1,7.6,43.6l6.5-0.1
		c2.8-15.6,0.1-32.2-8.7-46.8C255.3,104.7,241.7,94.6,226.5,89.8z"/>
	<path fill="#12395B" d="M236.9,71.1l-4.1,7.3c17,6,32.2,17.7,42.1,34.3c10,16.6,13.3,35.4,10.7,53.2l8.4-0.1
		c2.6-19.3-1.2-39.5-12-57.4C271.4,90.5,255.2,77.8,236.9,71.1z"/>
</g>
<g>
	<path fill="#0F395E" d="M1030.3,268.8c0-0.9-2-1.1-3.3-1c1.4-0.1,1.4-0.5,1.4-0.9v-88.8c0-0.5,0.3-1.9-1.8-1.9H889.2
		c-3.7,0-4.9,1.5-4.9,3.2V267c0,0.4,1.6,0.7,2.9,0.9c-1.4,0-2,0.1-2,1l-18.5,47.3c0,1.4,2.3,3.1,4.8,3.1h172.8
		c2.6,0,4.7-1.7,4.7-3.1L1030.3,268.8z M897.8,299.6h-7.3l-1.6,4.6h-1.5l2-5.8h9L897.8,299.6z M900.4,292.1l-7.3,0.3l-1.6,4.2H890
		l2-5.8h9L900.4,292.1z M903.4,283.3l-0.5,1.2h-7.7l-1.2,4.6h-1.5l2-5.8H903.4z M895.1,281.6l2-5.8h9l-0.5,1.2h-7.7l-1.2,4.6H895.1z
		 M912.1,292.1h-7.7l-1.2,4.6h-1.5l2-5.8h9L912.1,292.1z M914.7,284.6H907l-1.2,4.6h-1.5l2-5.8h9L914.7,284.6z M906.8,281.6l2-5.8h9
		l-0.5,1.2h-7.7l-1.2,4.6H906.8z M926.4,284.7h-7.7l-1.2,4.6H916l2-5.8h9L926.4,284.7z M929,277.2h-7.7l-1.2,4.6h-1.5l2-5.8h9
		L929,277.2z M931.8,281.7h-1.5l2-5.8h9l-0.5,1.2h-7.7L931.8,281.7z M976.1,301.2h-33.6l-2.7,10.3l-2.2-0.1l3.6-11.2h35.2
		L976.1,301.2z M1024.3,268.2h-134v-3h134V268.2z M1024.3,261.5c0,0.6,0.2,0.6-0.6,0.6h-134c-0.8,0-2.4-0.1-2.4-0.6v-81
		c0-0.6,1.5-1.4,2.4-1.4h134c0.8,0,0.6,0.8,0.6,1.4V261.5z"/>
</g>
<path fill="#0F395E" d="M997.2,136.3c0,1.6-1.3,2.8-2.8,2.8h-73c-1.6,0-2.8-1.3-2.8-2.8V2.8c0-1.6,1.3-2.8,2.8-2.8h73
	c1.6,0,2.8,1.3,2.8,2.8V136.3z"/>
<path fill="#FCFEFE" d="M992.5,120.6c0,1.4-1.1,2.5-2.5,2.5h-64.2c-1.4,0-2.5-1.1-2.5-2.5V7.5c0-1.4,1.1-2.5,2.5-2.5H990
	c1.4,0,2.5,1.1,2.5,2.5V120.6z"/>
<g>
	<path fill="#FCFEFE" d="M966.8,132.5c0,1.6-1.3,2.8-2.8,2.8h-12.2c-1.6,0-2.8-1.3-2.8-2.8V131c0-1.6,1.3-2.8,2.8-2.8H964
		c1.6,0,2.8,1.3,2.8,2.8V132.5z"/>
	<circle fill="#FCFEFE" cx="979.4" cy="131.7" r="4.1"/>
	<circle fill="#FCFEFE" cx="936.4" cy="131.7" r="4.1"/>
</g>
<g>
	<g>
		
			<linearGradient id="SVGID_2_" gradientUnits="userSpaceOnUse" x1="314.4551" y1="692.2334" x2="314.4551" y2="767.5248" gradientTransform="matrix(1 0 0 -1 4.492188e-002 499.7598)">
			<stop  offset="0" style="stop-color:#FFFFFF"/>
			<stop  offset="1" style="stop-color:#E4E7E8"/>
		</linearGradient>
		
			<rect x="238.8" y="-274.4" fill="url(#SVGID_2_)" stroke="#0F395E" stroke-width="2.2343" stroke-miterlimit="10" width="151.5" height="114.8"/>
		
			<linearGradient id="SVGID_3_" gradientUnits="userSpaceOnUse" x1="312.6558" y1="800.4473" x2="312.6558" y2="777.3104" gradientTransform="matrix(1 0 0 -1 4.492188e-002 499.7598)">
			<stop  offset="0" style="stop-color:#FFFFFF"/>
			<stop  offset="1" style="stop-color:#E4E7E8"/>
		</linearGradient>
		<polygon fill="url(#SVGID_3_)" stroke="#0F395E" stroke-width="2.2343" stroke-miterlimit="10" points="225.2,-274.4 312.8,-327 
			400.3,-274.4 		"/>
	</g>
	<g>
		<circle fill="#0F395E" cx="261.6" cy="-201.5" r="10"/>
		<circle fill="#0F395E" cx="318.7" cy="-249.3" r="15.4"/>
		<circle fill="#0F395E" cx="362.7" cy="-175.6" r="6.1"/>
		
			<line fill="none" stroke="#12395B" stroke-width="1.6757" stroke-miterlimit="10" x1="269.1" y1="-208.1" x2="306.6" y2="-239.7"/>
		
			<line fill="none" stroke="#12395B" stroke-width="1.6757" stroke-miterlimit="10" x1="329.9" y1="-238.7" x2="362.7" y2="-181.7"/>
		
			<line fill="none" stroke="#12395B" stroke-width="1.6757" stroke-miterlimit="10" x1="356.6" y1="-175.6" x2="269.1" y2="-194.9"/>
		<circle fill="#0F395E" cx="361.7" cy="-233.9" r="10.5"/>
		<circle fill="#0F395E" cx="253.8" cy="-255.9" r="6.6"/>
		<circle fill="#0F395E" cx="279" cy="-291.4" r="6.6"/>
		<circle fill="#0F395E" cx="331.8" cy="-296.3" r="7.8"/>
		<circle fill="#0F395E" cx="284.5" cy="-172.9" r="6.6"/>
		
			<line fill="none" stroke="#12395B" stroke-width="1.6757" stroke-miterlimit="10" x1="260.4" y1="-255.9" x2="303.3" y2="-249.3"/>
		
			<line fill="none" stroke="#12395B" stroke-width="1.6757" stroke-miterlimit="10" x1="253.8" y1="-249.3" x2="258.7" y2="-211.5"/>
		
			<line fill="none" stroke="#12395B" stroke-width="1.6757" stroke-miterlimit="10" x1="255.2" y1="-262.3" x2="275.4" y2="-285.8"/>
		
			<line fill="none" stroke="#12395B" stroke-width="1.6757" stroke-miterlimit="10" x1="285.4" y1="-292.7" x2="324.2" y2="-294.6"/>
		
			<line fill="none" stroke="#12395B" stroke-width="1.6757" stroke-miterlimit="10" x1="334.2" y1="-288.9" x2="357.2" y2="-243.3"/>
		
			<line fill="none" stroke="#12395B" stroke-width="1.6757" stroke-miterlimit="10" x1="362.7" y1="-223.4" x2="364.3" y2="-181.5"/>
		
			<line fill="none" stroke="#12395B" stroke-width="1.6757" stroke-miterlimit="10" x1="286.7" y1="-176.7" x2="315.6" y2="-234.2"/>
		
			<line fill="none" stroke="#12395B" stroke-width="1.6757" stroke-miterlimit="10" x1="281.8" y1="-285.8" x2="307.3" y2="-259.7"/>
		
			<line fill="none" stroke="#12395B" stroke-width="1.6757" stroke-miterlimit="10" x1="331.1" y1="-246.3" x2="354.8" y2="-236.7"/>
		<line fill="none" stroke="#12395B" stroke-width="1.6757" stroke-miterlimit="10" x1="329.9" y1="-290" x2="322.5" y2="-261.1"/>
	</g>
</g>
<g>
	<path fill="#0F395E" d="M1000.5,497.2c0,1.6-1.3,2.8-2.8,2.8H918c-1.6,0-2.8-1.3-2.8-2.8V358.3c0-1.6,1.3-2.8,2.8-2.8h79.7
		c1.6,0,2.8,1.3,2.8,2.8V497.2z"/>
	<g>
		<polyline fill="none" stroke="#FCFEFE" stroke-width="2" stroke-miterlimit="10" points="992.6,391.3 992.6,404.9 922.8,404.9 		
			"/>
		<path fill="#0F395E" stroke="#FCFEFE" stroke-width="2" stroke-miterlimit="10" d="M987.2,395.6c0.8,0.5,1.3,1.4,1.3,2.4
			c0,1.6-1.3,2.9-2.9,2.9c-1,0-1.9-0.5-2.4-1.3"/>
	</g>
	<g>
		<polyline fill="none" stroke="#FCFEFE" stroke-width="2" stroke-miterlimit="10" points="992.6,410.3 992.6,423.9 922.8,423.9 		
			"/>
		<path fill="#0F395E" stroke="#FCFEFE" stroke-width="2" stroke-miterlimit="10" d="M987.2,414.6c0.8,0.5,1.3,1.4,1.3,2.4
			c0,1.6-1.3,2.9-2.9,2.9c-1,0-1.9-0.5-2.4-1.3"/>
	</g>
	<g>
		<polyline fill="none" stroke="#FCFEFE" stroke-width="2" stroke-miterlimit="10" points="992.6,429.3 992.6,442.9 922.8,442.9 		
			"/>
		<path fill="#0F395E" stroke="#FCFEFE" stroke-width="2" stroke-miterlimit="10" d="M987.2,433.6c0.8,0.5,1.3,1.4,1.3,2.4
			c0,1.6-1.3,2.9-2.9,2.9c-1,0-1.9-0.5-2.4-1.3"/>
	</g>
	<g>
		<polyline fill="none" stroke="#FCFEFE" stroke-width="2" stroke-miterlimit="10" points="992.6,448.3 992.6,461.9 922.8,461.9 		
			"/>
		<path fill="#0F395E" stroke="#FCFEFE" stroke-width="2" stroke-miterlimit="10" d="M987.2,452.6c0.8,0.5,1.3,1.4,1.3,2.4
			c0,1.6-1.3,2.9-2.9,2.9c-1,0-1.9-0.5-2.4-1.3"/>
	</g>
	<g>
		<polyline fill="none" stroke="#FCFEFE" stroke-width="2" stroke-miterlimit="10" points="992.6,467.3 992.6,480.9 922.8,480.9 		
			"/>
		<path fill="#0F395E" stroke="#FCFEFE" stroke-width="2" stroke-miterlimit="10" d="M987.2,471.6c0.8,0.5,1.3,1.4,1.3,2.4
			c0,1.6-1.3,2.9-2.9,2.9c-1,0-1.9-0.5-2.4-1.3"/>
	</g>
	<path fill="#0F395E" stroke="#FCFEFE" stroke-width="2" stroke-miterlimit="10" d="M991.2,363.6c0.8,0.5,1.3,1.4,1.3,2.4
		c0,1.6-1.3,2.9-2.9,2.9c-1,0-1.9-0.5-2.4-1.3"/>
	<line fill="none" stroke="#FCFEFE" stroke-width="2" stroke-miterlimit="10" x1="915.2" y1="374.5" x2="1000.5" y2="374.5"/>
</g>
<polygon fill="#0F395E" points="908.8,61 879.8,50.4 887.1,66.2 661.7,182.3 665.8,190.3 890.9,74.4 898.2,90 "/>
<g>
	<g>
		<line fill="none" stroke="#0F395E" stroke-width="9" stroke-miterlimit="10" x1="711.1" y1="250.2" x2="854.3" y2="246.9"/>
		<g>
			<polygon fill="#0F395E" points="851.3,225 851.4,268.7 873.2,246.8 			"/>
		</g>
	</g>
</g>
<path fill="#FCFEFE" d="M1024.8,260c0,1.6-1.3,2.8-2.8,2.8H890.4c-1.6,0-2.8-1.3-2.8-2.8v-78.2c0-1.6,1.3-2.8,2.8-2.8h131.5
	c1.6,0,2.8,1.3,2.8,2.8L1024.8,260L1024.8,260z"/>
<polygon fill="#0F395E" points="667.5,301.5 863.7,441.1 853.9,455.4 884.3,449.7 878.7,419.3 868.8,433.7 672.6,294.1 "/>
<g>
	
		<rect x="684.2" y="394.4" transform="matrix(-0.8202 -0.5721 0.5721 -0.8202 1164.0034 1198.1771)" fill="none" width="172.1" height="43.5"/>
	<path fill="#211F20" d="M704.5,362.5l2.5,1.7c-1,1.4-1.2,2.8-0.9,4.2c0.4,1.4,1.2,2.7,2.7,3.7c1.5,1,2.8,1.5,4.1,1.5
		c1.2,0,2.3-0.6,3-1.6c1-1.4,0.2-3.7-2.5-6.6c-0.2-0.1-0.2-0.3-0.4-0.4c-2.2-2.4-3.4-4.2-3.7-5.5c-0.3-1.3,0-2.7,1-4.1
		c1.1-1.7,2.7-2.6,4.7-2.8c2-0.1,3.9,0.5,6,1.9c2.1,1.5,3.4,3.1,3.8,5.1c0.5,1.9,0,3.8-1.3,5.7l-2.5-1.7c0.8-1.3,1.1-2.6,0.7-3.8
		c-0.3-1.2-1.1-2.3-2.5-3.2c-1.2-0.8-2.5-1.3-3.6-1.3c-1.1,0-2,0.5-2.6,1.4c-1,1.5-0.2,3.7,2.4,6.6c0.4,0.4,0.6,0.8,0.9,1
		c0.1,0,0.1,0.1,0.2,0.3c1.7,1.9,2.7,3.3,2.9,4.4c0.2,0.8,0.2,1.6,0,2.4c-0.2,0.8-0.5,1.5-1,2.3c-1.3,1.8-3,2.8-5,3
		c-2.1,0.2-4.2-0.5-6.4-2.1c-2.3-1.6-3.7-3.4-4.1-5.4C702.6,366.9,703.1,364.8,704.5,362.5z"/>
	<path fill="#211F20" d="M729.6,368.8l-5.9,8.4c-0.9,1.3-1.4,2.4-1.3,3.3c0.1,0.8,0.6,1.6,1.6,2.3c1.3,0.9,2.6,1.3,3.9,1
		c1.2-0.3,2.4-1.3,3.5-2.8l5.1-7.4l2.3,1.6l-9.6,13.7l-2.2-1.6l1.4-2c-1,0.5-2.1,0.6-3.1,0.5c-1-0.1-2-0.5-3.1-1.3
		c-1-0.7-1.7-1.5-2.1-2.2c-0.5-0.8-0.7-1.6-0.6-2.5c0-0.5,0.1-1,0.4-1.5c0.2-0.6,0.6-1.3,1.4-2.2l0.5-0.6l5.8-8.3L729.6,368.8z"/>
	<path fill="#211F20" d="M732.7,391.4l13.1-18.9l2.3,1.6l-4.9,7c1-0.5,2.1-0.5,3.2-0.4c1.1,0.1,2,0.5,2.9,1.1c1.8,1.3,2.8,3,3,5.1
		c0.2,2.1-0.5,4.3-2.1,6.5c-1.6,2.2-3.4,3.6-5.3,4.1c-2,0.5-4,0.2-5.7-1.1c-1-0.7-1.7-1.5-2.2-2.3c-0.5-0.8-0.8-1.8-0.8-3l-1.3,1.7
		L732.7,391.4z M739.7,386c-1.1,1.7-1.7,3.3-1.7,4.7c0.1,1.5,0.7,2.5,2,3.5c1.2,0.9,2.6,1.2,3.9,0.8c1.3-0.4,2.6-1.3,3.7-2.9
		c1.3-1.8,1.8-3.4,1.8-4.7c-0.1-1.5-0.7-2.6-2-3.5c-1.3-0.9-2.7-1.2-3.9-0.9C742.1,383.3,740.9,384.3,739.7,386z"/>
	<path fill="#211F20" d="M750.4,397.2l2.2,1.6c-0.6,1-0.7,1.9-0.5,2.8c0.3,0.9,0.9,1.7,2,2.4c1,0.7,1.9,1.1,2.7,1.1
		c0.8,0,1.5-0.3,2-1c0.3-0.5,0.5-1,0.4-1.5c-0.1-0.4-0.5-1-1.2-1.8l-2.1-2.5c-1.2-1.3-1.8-2.5-2-3.5c-0.2-1,0.1-2,0.9-3.1
		c0.8-1.2,2-1.9,3.4-1.9c1.5-0.1,2.9,0.4,4.6,1.5c1.7,1.1,2.7,2.4,3.1,3.8c0.5,1.5,0.2,2.8-0.7,4.1l0,0.1l-2.3-1.6
		c0.5-0.7,0.6-1.5,0.3-2.3c-0.2-0.8-0.9-1.5-1.8-2.1c-1-0.7-1.7-0.9-2.4-1c-0.7,0-1.3,0.3-1.7,0.9c-0.3,0.4-0.4,0.9-0.2,1.4
		c0.1,0.4,0.6,1.1,1.2,1.8l1.8,2.1c1.3,1.5,2.1,2.7,2.3,3.8c0.2,1-0.1,2-0.9,3.1c-1,1.4-2.3,2.2-3.9,2.2c-1.6,0.1-3.3-0.5-5-1.8
		c-1.8-1.3-2.9-2.6-3.2-4.1C749,400.3,749.3,398.7,750.4,397.2z"/>
	<path fill="#211F20" d="M776.8,408.5c0.6-1,0.8-2,0.5-2.9s-0.9-1.8-1.9-2.5c-1.2-0.8-2.5-1.1-3.9-0.6c-1.3,0.4-2.5,1.4-3.7,3.1
		c-1.1,1.7-1.7,3.2-1.7,4.5c0,1.3,0.6,2.4,1.9,3.3c1,0.8,2.1,1,3.2,1c1-0.1,2-0.6,2.9-1.6l2.2,1.6c-1.3,1.6-2.8,2.5-4.6,2.7
		c-1.7,0.2-3.5-0.4-5.3-1.6c-1.8-1.3-2.9-3-3.1-5c-0.2-2,0.5-4.2,2.1-6.4c1.6-2.3,3.4-3.7,5.5-4.2c2-0.5,4-0.1,6,1.3
		c1.7,1.3,2.7,2.6,3.2,4.2c0.4,1.6,0.1,3.2-0.9,4.8L776.8,408.5z"/>
	<path fill="#211F20" d="M775,421l9.6-13.7l2.2,1.6l-1.7,2.5c1-0.7,2-1,2.9-1s1.9,0.3,2.8,0.9c0.2,0.1,0.3,0.2,0.3,0.3
		c0.1,0,0.2,0.1,0.2,0.1l-1.7,2.5c-0.1,0-0.1-0.1-0.2-0.1c-0.1,0-0.2-0.1-0.3-0.3c-1.2-0.8-2.4-1.2-3.5-1c-1.1,0.2-2.1,1-3,2.2
		l-5.3,7.7L775,421z"/>
	<path fill="#211F20" d="M783.7,427l9.6-13.7l2.3,1.6l-9.6,13.7L783.7,427z M795.1,410.8l1.8-2.6l2.3,1.6l-1.8,2.6L795.1,410.8z"/>
	<path fill="#211F20" d="M789.6,431.2l13.1-18.9l2.3,1.6l-4.9,7c1-0.5,2.1-0.5,3.2-0.4c1,0.1,2,0.5,2.9,1.1c1.8,1.3,2.8,3,3,5.1
		c0.2,2.1-0.5,4.3-2.1,6.5c-1.6,2.2-3.4,3.6-5.3,4.1c-2,0.5-4,0.2-5.7-1.1c-1-0.7-1.7-1.5-2.2-2.3c-0.5-0.8-0.8-1.8-0.8-3l-1.3,1.7
		L789.6,431.2z M796.6,425.7c-1.1,1.7-1.7,3.3-1.7,4.7c0.1,1.5,0.7,2.5,2,3.5c1.2,0.9,2.6,1.2,3.9,0.8c1.3-0.4,2.6-1.3,3.7-2.9
		c1.3-1.7,1.8-3.4,1.8-4.7c0-1.3-0.7-2.6-2-3.5c-1.3-0.9-2.7-1.2-3.9-0.9C799,423,797.9,424,796.6,425.7z"/>
	<path fill="#211F20" d="M817.5,444l2.3,1.6c-1.3,1.3-2.8,2.1-4.5,2.2c-1.7,0.1-3.3-0.4-5-1.5c-1.9-1.3-3-3-3.2-5.1
		c-0.2-2,0.4-4.2,2-6.4c1.6-2.4,3.4-3.8,5.5-4.3c2-0.5,4-0.2,5.9,1.1c1.9,1.4,3.1,3,3.3,5c0.2,2-0.4,4-2,6.3
		c-0.2,0.3-0.3,0.5-0.5,0.6c-0.1,0.2-0.2,0.3-0.3,0.3l-9.9-6.9c-1,1.5-1.4,2.8-1.2,4.1c0.1,1.3,0.9,2.4,2.1,3.2c1,0.7,1.9,1,2.9,0.9
		C815.8,445.2,816.7,444.8,817.5,444z M812.6,435.1l7.6,5.3c0.8-1.3,1.2-2.5,1.1-3.6c-0.1-1.2-0.8-2.2-2-3c-1.1-0.8-2.3-1.1-3.4-0.8
		C814.7,433.1,813.6,433.9,812.6,435.1z"/>
</g>
<g>
	<g>
		<line fill="none" stroke="#0F395E" stroke-width="9" stroke-miterlimit="10" x1="256" y1="249.1" x2="453.7" y2="250"/>
		<g>
			<polygon fill="#0F395E" points="259.1,227.2 258.8,271 237.1,249 			"/>
		</g>
	</g>
</g>
<g>
	<rect x="276.1" y="180" fill="none" width="125.5" height="43.5"/>
	<path fill="#211F20" d="M278.6,203v-23h8.5c1.4,0,2.4,0.1,3.1,0.2c0.7,0.1,1.4,0.4,1.9,0.7c0.9,0.5,1.7,1.3,2.2,2.3
		s0.8,2.2,0.8,3.5c0,1.3-0.3,2.4-0.8,3.4s-1.2,1.8-2.2,2.3c-0.6,0.3-1.2,0.6-1.9,0.7c-0.7,0.1-2,0.2-3.7,0.2h-4.8v9.7H278.6z
		 M281.7,190.6h5.3c1.8,0,3.1-0.3,3.8-0.9c0.7-0.6,1.1-1.6,1.1-3c0-1.4-0.4-2.3-1.1-2.9c-0.7-0.6-1.9-0.9-3.6-0.9h-5.5V190.6
		L281.7,190.6z"/>
	<path fill="#211F20" d="M301.5,186.3v10.3c0,1.6,0.3,2.8,0.8,3.4s1.4,1,2.6,1c1.6,0,2.9-0.5,3.7-1.4c0.8-1,1.3-2.4,1.3-4.2v-9h2.8
		V203H310v-2.5c-0.6,1-1.3,1.7-2.3,2.2c-0.9,0.5-2,0.7-3.3,0.7c-1.2,0-2.2-0.2-3-0.6c-0.9-0.4-1.5-1-2-1.7c-0.3-0.4-0.4-0.9-0.6-1.4
		c-0.1-0.5-0.2-1.4-0.2-2.6v-0.8v-10H301.5z"/>
	<path fill="#211F20" d="M317,203v-23h2.8v8.6c0.6-0.9,1.4-1.7,2.3-2.1c0.9-0.5,1.9-0.7,3.1-0.7c2.2,0,4,0.8,5.3,2.4
		c1.3,1.6,2,3.8,2,6.5c0,2.7-0.7,4.8-2,6.4s-3.1,2.4-5.3,2.4c-1.2,0-2.2-0.2-3.1-0.6s-1.7-1.1-2.4-2v2.1H317z M319.6,194.6
		c0,2.1,0.4,3.7,1.3,4.8s2.1,1.7,3.7,1.7c1.5,0,2.8-0.5,3.6-1.6c0.8-1.1,1.3-2.6,1.3-4.5c0-2.1-0.4-3.7-1.3-4.9
		c-0.9-1.2-2.1-1.7-3.7-1.7c-1.7,0-2.9,0.5-3.7,1.6C320,191.1,319.6,192.5,319.6,194.6z"/>
	<path fill="#211F20" d="M336,203v-23h2.9v23H336z"/>
	<path fill="#211F20" d="M343.2,183.2V180h2.8v3.2H343.2z M343.2,203v-16.7h2.8V203H343.2z"/>
	<path fill="#211F20" d="M349.1,197.6h2.7c0.1,1.1,0.5,2,1.2,2.6c0.7,0.6,1.7,0.9,3,0.9c1.2,0,2.2-0.2,2.9-0.7c0.7-0.5,1-1.1,1-1.9
		c0-0.6-0.2-1.1-0.5-1.4c-0.3-0.3-1-0.6-2-0.9l-3.1-0.8c-1.8-0.4-3-1-3.7-1.7c-0.7-0.7-1-1.7-1-3c0-1.5,0.6-2.7,1.7-3.5
		c1.1-0.9,2.7-1.3,4.6-1.3c2,0,3.6,0.5,4.8,1.4c1.2,0.9,1.8,2.2,1.8,3.7v0.1h-2.7c-0.1-0.9-0.4-1.6-1.1-2.1
		c-0.7-0.5-1.6-0.7-2.7-0.7s-2,0.2-2.6,0.6s-0.9,1-0.9,1.7c0,0.5,0.2,1,0.6,1.3c0.4,0.3,1.1,0.6,2.1,0.8l2.7,0.6
		c1.9,0.5,3.3,1,4,1.8c0.7,0.7,1.1,1.7,1.1,3.1c0,1.7-0.6,3.1-1.8,4.1c-1.2,1-2.9,1.4-5.1,1.4c-2.1,0-3.8-0.5-4.9-1.5
		C349.7,201,349.2,199.5,349.1,197.6z"/>
	<path fill="#211F20" d="M377.3,203v-10.3c0-1.7-0.3-2.8-0.8-3.4c-0.5-0.6-1.4-0.9-2.6-0.9c-1.5,0-2.7,0.4-3.6,1.3
		c-0.9,0.9-1.3,2-1.3,3.5v9.9h-2.8v-23h2.8v8.6c0.5-0.9,1.2-1.6,2.1-2.1s1.9-0.7,3.1-0.7c1.3,0,2.3,0.2,3.2,0.6s1.5,1,2,1.7
		c0.3,0.4,0.4,0.9,0.6,1.4c0.1,0.5,0.2,1.4,0.2,2.6v0.8v10H377.3z"/>
</g>
<g>
	
		<radialGradient id="SVGID_4_" cx="571.168" cy="264.6006" r="134.899" gradientTransform="matrix(1 0 0 -1 4.492188e-002 499.7598)" gradientUnits="userSpaceOnUse">
		<stop  offset="0.3749" style="stop-color:#FAFEFE"/>
		<stop  offset="0.6415" style="stop-color:#F5F8F8"/>
		<stop  offset="0.9119" style="stop-color:#E8ECED"/>
		<stop  offset="1" style="stop-color:#E3E7E8"/>
	</radialGradient>
	<path fill="url(#SVGID_4_)" d="M676.2,225.8c1.7-3.9,2.7-8,2.7-12.3c0-21-22.5-38-50.2-38c-1.5,0-2.9,0.1-4.3,0.2
		c-3.4-25.5-26.9-45.2-55.6-45.2c-30.6,0-55.4,22.5-56,50.5c-2.4-0.2-4.7-0.3-7.1-0.3c-41.6,0-75.3,26.8-75.3,59.9
		s33.7,59.9,75.3,59.9c9.3,0,18.1-1.4,26.3-3.8c8,4.8,19.5,7.8,32.3,7.8c14.1,0,26.7-3.7,34.7-9.4c5.9,4.9,14.1,8,23.3,8
		c9.9,0,18.7-3.5,24.6-9.1c7.6,5.7,17.5,9.1,28.2,9.1c24.2,0,43.8-17.3,43.8-38.6C718.8,243.4,699.8,226.3,676.2,225.8z"/>
	<g>
		<path fill="#CACECF" d="M564.3,306.9c-12.2,0-24-2.8-32.6-7.6c-8.5,2.4-17.2,3.6-26,3.6c-42.9,0-77.8-28-77.8-62.3
			c0-34.4,34.9-62.3,77.8-62.3c1.6,0,3.1,0,4.8,0.1c0.9-13.3,7.1-25.6,17.4-35c11-9.9,25.5-15.4,40.9-15.4c28.5,0,53,19.3,57.6,45.1
			c0.8,0,1.5,0,2.3,0c29,0,52.7,18.1,52.7,40.4c0,3.4-0.6,6.7-1.7,10c10.7,0.9,20.7,5.2,28.3,12.1c8.6,7.7,13.3,17.9,13.3,28.8
			c0,22.6-20.7,41.1-46.2,41.1c-10.1,0-20-3-28.1-8.5c-6.5,5.4-15.4,8.5-24.7,8.5c-8.7,0-17-2.6-23.4-7.4
			C590.1,303.7,577.6,306.9,564.3,306.9z M533.3,294.5c7.9,4.7,19.2,7.5,31,7.5c13.2,0,25.3-3.3,33.3-8.9l1.5-1.1l1.4,1.2
			c5.7,4.8,13.4,7.4,21.7,7.4c8.9,0,17.2-3.1,22.9-8.5l1.5-1.4l1.6,1.2c7.5,5.6,17,8.6,26.8,8.6c22.8,0,41.3-16.2,41.3-36.2
			c0-19.8-17.7-35.6-40.3-36.1l-3.7-0.1l1.5-3.4c1.7-3.7,2.5-7.5,2.5-11.3c0-19.6-21.4-35.5-47.8-35.5c-1.5,0-3,0.1-4.2,0.2
			l-2.3,0.2l-0.3-2.3c-3.3-24.6-26.1-43.1-53.1-43.1c-29,0-53,21.6-53.5,48.1l-0.1,2.6l-2.6-0.2c-2.5-0.2-4.8-0.3-7-0.3
			c-40.2,0-72.9,25.8-72.9,57.4c0,31.7,32.7,57.4,72.9,57.4c8.7,0,17.3-1.3,25.6-3.7l1-0.3L533.3,294.5z"/>
		<path fill="#FAFEFE" d="M568.8,129.5c28.4,0,52.5,19.4,56.4,45.2c1-0.1,2.2-0.1,3.5-0.1c28.2,0,51.2,17.5,51.2,39
			c0,3.8-0.8,7.6-2.3,11.4c11.2,0.6,21.5,4.7,29.4,11.8c8.2,7.4,12.8,17.3,12.8,27.7c0,21.8-20.1,39.6-44.7,39.6
			c-10.2,0-20.2-3.1-28.2-8.8c-6.3,5.6-15.2,8.8-24.6,8.8c-8.8,0-17-2.7-23.3-7.7c-8.5,5.8-21.1,9.1-34.6,9.1
			c-12.2,0-24-2.8-32.4-7.7c-8.5,2.5-17.3,3.8-26.2,3.8c-42.1,0-76.3-27.3-76.3-60.8s34.2-60.8,76.3-60.8c2,0,4,0.1,6.2,0.2
			c0.6-13.4,6.6-26,17-35.4C539.6,134.8,553.8,129.5,568.8,129.5 M513.8,182l-1-0.1c-2.5-0.2-4.8-0.3-7.1-0.3
			c-41,0-74.4,26.4-74.4,58.9s33.4,58.9,74.4,58.9c8.8,0,17.6-1.3,26-3.8l0.4-0.1l0.4,0.2c8.1,4.9,19.7,7.7,31.8,7.7
			c13.5,0,25.9-3.4,34.1-9.2l0.6-0.4l0.6,0.5c6,5,14,7.7,22.6,7.7c9.2,0,17.9-3.2,23.9-8.9l0.6-0.6l0.6,0.5
			c7.7,5.8,17.6,8.9,27.7,8.9c23.6,0,42.8-16.9,42.8-37.7c0-20.6-18.3-37.1-41.7-37.6h-1.5l0.6-1.3c1.8-3.9,2.6-7.9,2.6-11.9
			c0-20.4-22.1-37-49.3-37c-1.6,0-3.1,0.1-4.3,0.2l-0.9,0.1l-0.1-0.9c-3.4-25.3-26.8-44.4-54.6-44.4c-29.7,0-54.4,22.2-55,49.6
			L513.8,182 M568.8,126.6c-15.7,0-30.6,5.6-41.8,15.8c-10.2,9.3-16.5,21.4-17.8,34.5c-1.2,0-2.3-0.1-3.5-0.1
			c-43.7,0-79.2,28.6-79.2,63.8c0,35.2,35.5,63.8,79.2,63.8c8.7,0,17.4-1.2,25.8-3.5c8.8,4.8,20.6,7.5,32.8,7.5
			c13.2,0,25.6-3.1,34.5-8.5c6.5,4.6,14.8,7.1,23.4,7.1c9.2,0,18.1-2.9,24.8-8.1c8.1,5.2,18,8.1,28,8.1c26.3,0,47.7-19.1,47.7-42.5
			c0-11.3-4.9-21.9-13.8-29.9c-7.4-6.7-17-11-27.4-12.2c0.8-2.9,1.2-5.8,1.2-8.8c0-23.1-24.3-41.9-54.1-41.9c-0.3,0-0.7,0-1,0
			c-2.5-12.2-9.4-23.3-19.6-31.5C597.1,131.4,583.2,126.6,568.8,126.6L568.8,126.6z M516.7,185.2l0.1-3.1v-1
			c0.5-25.7,23.9-46.7,52-46.7c26.3,0,48.5,18,51.7,41.8l0.1,0.9l0.4,2.7l2.8-0.2l0.9-0.1c1.1-0.1,2.6-0.2,4.1-0.2
			c25.5,0,46.3,15.3,46.3,34.1c0,3.6-0.8,7.2-2.4,10.7l-0.6,1.3l-1.8,4.1l4.5,0.1h1.5c21.8,0.5,38.8,15.7,38.8,34.7
			c0,19.1-17.9,34.7-39.9,34.7c-9.5,0-18.7-3-25.9-8.4l-0.6-0.5l-2-1.5l-1.8,1.7l-0.6,0.6c-5.4,5.1-13.4,8.1-21.9,8.1
			c-7.9,0-15.3-2.5-20.7-7.1l-0.6-0.5l-1.7-1.5l-1.9,1.3l-0.6,0.4c-7.7,5.5-19.5,8.7-32.4,8.7c-11.5,0-22.6-2.6-30.3-7.3l-0.4-0.2
			l-1.1-0.7l-1.2,0.4l-0.4,0.1c-8.2,2.4-16.7,3.7-25.2,3.7c-39.4,0-71.4-25.1-71.4-56c0-30.9,32-56,71.4-56c2.1,0,4.4,0.1,6.8,0.3
			l1,0.1L516.7,185.2L516.7,185.2z"/>
	</g>
</g>
<g>
	<rect x="453.7" y="192.1" fill="none" width="232.5" height="102"/>
	<path fill="#211F20" d="M518.8,196.5v25.7H515V192h5.9l7.5,23.1c0.2,0.7,0.4,1.2,0.5,1.5c0.1,0.4,0.2,0.7,0.2,1
		c0.1-0.5,0.2-1,0.3-1.4c0.1-0.4,0.2-0.8,0.3-1.1l7.8-23.1h5.9v30.2h-4v-25.7c-0.1,0.4-0.2,0.9-0.3,1.3c-0.1,0.4-0.3,0.9-0.4,1.3
		l-7.8,23.1H527l-7.6-23.1c-0.1-0.4-0.3-0.8-0.4-1.2S518.9,197,518.8,196.5z"/>
	<path fill="#211F20" d="M570.7,221.2c-1.2,0.6-2.4,1.1-3.7,1.4c-1.3,0.3-2.6,0.5-4,0.5c-4.5,0-8-1.4-10.5-4.2
		c-2.5-2.8-3.8-6.7-3.8-11.7s1.3-8.9,3.8-11.7s6-4.2,10.5-4.2c4.4,0,7.9,1.4,10.5,4.2c2.5,2.8,3.8,6.7,3.8,11.7c0,2.4-0.3,4.6-1,6.6
		c-0.6,1.9-1.6,3.7-3,5.3l3.6,3l-2,2.6L570.7,221.2z M567.4,218.6l-3.3-2.8l2-2.6l4,3.3c0.9-1,1.7-2.3,2.2-3.9s0.7-3.4,0.7-5.4
		c0-3.9-0.9-6.9-2.7-9.1c-1.8-2.2-4.2-3.3-7.4-3.3c-3.2,0-5.6,1.1-7.4,3.3c-1.8,2.2-2.7,5.2-2.7,9.1c0,3.9,0.9,6.9,2.7,9.1
		c1.8,2.2,4.3,3.3,7.4,3.3c0.8,0,1.6-0.1,2.3-0.2S566.7,218.9,567.4,218.6z"/>
	<path fill="#211F20" d="M589.1,222.3v-26.5h-9.5v-3.7h23.2v3.7h-9.5v26.5H589.1z"/>
	<path fill="#211F20" d="M614,222.3v-26.5h-9.5v-3.7h23.2v3.7h-9.5v26.5H614z"/>
	<path fill="#211F20" d="M510.8,272.7v-30.2H523c3.1,0,5.5,0.6,7,1.8c1.6,1.2,2.3,3.1,2.3,5.5c0,1.6-0.4,2.9-1.1,4
		c-0.7,1.1-1.8,1.9-3.2,2.5c1.8,0.3,3.2,1.2,4.2,2.4s1.5,2.9,1.5,4.8c0,2.8-0.9,5-2.7,6.6c-1.8,1.6-4.3,2.4-7.5,2.4h-12.7V272.7z
		 M514.9,255.2h7.2c2.1,0,3.7-0.4,4.7-1.1c1-0.7,1.5-2,1.5-3.6c0-1.5-0.5-2.7-1.4-3.4c-0.9-0.7-2.4-1.1-4.4-1.1H515L514.9,255.2
		L514.9,255.2z M514.9,269h8.3c2.1,0,3.7-0.5,4.8-1.4c1.1-0.9,1.6-2.3,1.6-4c0-1.8-0.6-3-1.7-3.9c-1.1-0.9-2.8-1.2-5.2-1.2h-7.9V269
		H514.9z"/>
	<path fill="#211F20" d="M538.2,272.7v-22h3.6v3.9c0.6-1.5,1.4-2.6,2.4-3.3s2.2-1.1,3.7-1.1c0.3,0,0.5,0,0.6,0s0.2,0,0.4,0.1v3.9
		c-0.1,0-0.2,0-0.3,0c-0.1,0-0.3,0-0.6,0c-2,0-3.5,0.5-4.5,1.6c-1,1.1-1.5,2.6-1.5,4.7v12.2H538.2z"/>
	<path fill="#211F20" d="M551,261.7c0-3.7,0.9-6.5,2.8-8.6c1.9-2.1,4.4-3.1,7.7-3.1s5.9,1,7.8,3.1c1.9,2.1,2.8,4.9,2.8,8.6
		s-0.9,6.6-2.8,8.6c-1.8,2.1-4.4,3.1-7.7,3.1c-3.3,0-5.9-1-7.8-3.1C551.9,268.2,551,265.4,551,261.7z M554.8,261.7
		c0,2.7,0.6,4.8,1.8,6.2c1.2,1.4,2.8,2.2,5,2.2c2.2,0,3.8-0.7,5-2.2c1.2-1.5,1.7-3.5,1.7-6.2s-0.6-4.8-1.7-6.2
		c-1.1-1.4-2.8-2.2-5-2.2c-2.2,0-3.9,0.7-5,2.2C555.5,257,554.8,258.9,554.8,261.7z"/>
	<path fill="#211F20" d="M576.5,272.7v-30.2h3.7v18.1l9.9-9.9h4.7l-8.2,8l8.1,13.9h-4.2l-6.4-11.4l-3.9,3.7v7.6h-3.7V272.7z"/>
	<path fill="#211F20" d="M613,265.6h3.7c-0.4,2.4-1.4,4.3-3.2,5.7c-1.8,1.4-3.9,2.1-6.5,2.1c-3,0-5.5-1-7.2-3.1
		c-1.7-2.1-2.6-4.8-2.6-8.4c0-3.7,0.9-6.7,2.6-8.8c1.7-2.1,4.2-3.2,7.2-3.2c3.2,0,5.6,1,7.3,2.9c1.7,1.9,2.6,4.7,2.6,8.2
		c0,0.5,0,0.8,0,1s0,0.4-0.1,0.6h-15.9c0,2.3,0.6,4.1,1.7,5.4c1.1,1.3,2.6,1.9,4.6,1.9c1.5,0,2.7-0.4,3.7-1.2
		C612.1,268.1,612.7,267,613,265.6z M601,259.7h12.1c0-2.1-0.5-3.6-1.6-4.7s-2.5-1.7-4.4-1.7c-1.8,0-3.3,0.5-4.3,1.6
		C601.8,256,601.2,257.6,601,259.7z"/>
	<path fill="#211F20" d="M621.2,272.7v-22h3.6v3.9c0.6-1.5,1.4-2.6,2.4-3.3s2.2-1.1,3.7-1.1c0.3,0,0.5,0,0.6,0s0.2,0,0.4,0.1v3.9
		c-0.1,0-0.2,0-0.3,0c-0.1,0-0.3,0-0.6,0c-2,0-3.5,0.5-4.5,1.6c-1,1.1-1.5,2.6-1.5,4.7v12.2H621.2z"/>
</g>
<polygon fill="#0F395E" points="702.2,275.2 705.4,305.9 716.7,292.1 892.4,416.2 897.9,409.1 722.4,285.1 733,272 "/>
<polygon fill="#0F395E" points="445.1,216.8 423.3,194.8 423.2,212.2 243.7,211.3 243.7,220.3 423.2,221.2 423.1,238.5 "/>
<radialGradient id="SVGID_5_" cx="153.9175" cy="228.0425" r="93.111" gradientTransform="matrix(0.7629 -0.6465 0.4757 0.5613 -71.9763 199.5539)" gradientUnits="userSpaceOnUse">
	<stop  offset="5.376345e-003" style="stop-color:#FCFEFE"/>
	<stop  offset="0.3749" style="stop-color:#FAFEFE"/>
	<stop  offset="0.6415" style="stop-color:#F5F8F8"/>
	<stop  offset="0.9119" style="stop-color:#E8ECED"/>
	<stop  offset="1" style="stop-color:#E3E7E8"/>
</radialGradient>
<path fill="url(#SVGID_5_)" stroke="#0F395E" stroke-width="2" stroke-miterlimit="10" d="M216.7,305.4c0,1.6-1.3,2.8-2.8,2.8h-91.2
	c-1.6,0-2.8-1.3-2.8-2.8V149c0-1.6,1.3-2.8,2.8-2.8h91.2c1.6,0,2.8,1.3,2.8,2.8V305.4z"/>
<line fill="none" stroke="#0F395E" stroke-width="2" stroke-miterlimit="10" x1="168.2" y1="146.1" x2="168.2" y2="308.3"/>
<line fill="none" stroke="#0F395E" stroke-width="3" stroke-miterlimit="10" x1="173.8" y1="191.5" x2="173.8" y2="262.5"/>
<line fill="none" stroke="#0F395E" stroke-width="3" stroke-miterlimit="10" x1="162.3" y1="191.5" x2="162.3" y2="262.5"/>
<path fill="#E4E7E8" stroke="#0F395E" stroke-width="2" stroke-miterlimit="10" d="M210.2,214.7c0,1.6-1.3,2.8-2.8,2.8h-24
	c-1.6,0-2.8-1.3-2.8-2.8v-21c0-1.6,1.3-2.8,2.8-2.8h24c1.6,0,2.8,1.3,2.8,2.8V214.7z"/>
<path fill="#E4E7E8" stroke="#0F395E" stroke-width="2" stroke-miterlimit="10" d="M150.6,243.4c0,1.6-1.3,2.8-2.8,2.8h-14.9
	c-1.6,0-2.8-1.3-2.8-2.8V215c0-1.6,1.3-2.8,2.8-2.8h14.9c1.6,0,2.8,1.3,2.8,2.8V243.4z"/>
<polygon fill="#E4E7E8" stroke="#0F395E" stroke-width="2" stroke-miterlimit="10" points="144.1,228.3 136.1,228.3 135.1,221.3 
	145.1,221.3 "/>
</svg>
